<svg xmlns="http://www.w3.org/2000/svg" width="42" height="42" viewBox="0 0 60 50" fill="none" style="margin: 0px 0px 0px 10px;">
                  <path d="M23.3333 0C10.4533 0 0 10.4533 0 23.3333C0 36.2133 10.4533 46.6667 23.3333 46.6667C36.2133 46.6667 46.6667 36.2133 46.6667 23.3333C46.6667 10.4533 36.2133 0 23.3333 0ZM23.3333 7C27.2067 7 30.3333 10.1267 30.3333 14C30.3333 17.8733 27.2067 21 23.3333 21C19.46 21 16.3333 17.8733 16.3333 14C16.3333 10.1267 19.46 7 23.3333 7ZM23.3333 40.1333C17.5 40.1333 12.3433 37.1467 9.33333 32.62C9.40333 27.9767 18.6667 25.4333 23.3333 25.4333C27.9767 25.4333 37.2633 27.9767 37.3333 32.62C34.3233 37.1467 29.1667 40.1333 23.3333 40.1333Z" fill="#424242"/>
              </svg>